HIERARCHY
ROOT Hips
{
	OFFSET 0.00000 0.00000 0.00000
	CHANNELS 6 Xposition Yposition Zposition Zrotation Yrotation Xrotation 
	JOINT RightUpLegDummy
	{
		OFFSET 0 0 0
		CHANNELS 3 Zrotation Yrotation Xrotation
		JOINT RightUpLeg
		{
			OFFSET -3.52197 -3.41223 0.04002
			CHANNELS 3 Zrotation Yrotation Xrotation
			JOINT RightLeg
			{
				OFFSET 0.00006 -17.42390 1.60435
				CHANNELS 3 Zrotation Yrotation Xrotation
				JOINT RightFoot
				{
					OFFSET 0.06154 -16.50078 -1.63900
					CHANNELS 3 Zrotation Yrotation Xrotation
					JOINT RightToes
					{
						OFFSET 0.00298 -1.73825 3.34613
						CHANNELS 3 Zrotation Yrotation Xrotation
						End Site
						{
							OFFSET 0.00480 -0.05416 3.85043
						}
					}
				}
			}
		}
	}
	JOINT SpineDummy
	{
		OFFSET 0 0 0
		CHANNELS 3 Zrotation Yrotation Xrotation
		JOINT Spine
		{
			OFFSET 0.00000 4.68130 0.00000
			CHANNELS 3 Zrotation Yrotation Xrotation
			JOINT Spine1
			{
				OFFSET -0.00000 10.10138 0.05002
				CHANNELS 3 Zrotation Yrotation Xrotation
				JOINT HEadDummy
				{
					OFFSET 0 0 0
					CHANNELS 3 Zrotation Yrotation Xrotation
					JOINT Head
					{
						OFFSET -0.00000 3.43865 0.00438
						CHANNELS 3 Zrotation Yrotation Xrotation
						End Site
						{
							OFFSET -0.11417 5.02924 0.98962
						}
					}
				}
				JOINT LeftShoulder1Dummy
				{
					OFFSET 0 0 0
					CHANNELS 3 Zrotation Yrotation Xrotation
					JOINT LeftShoulder1
					{
						OFFSET 3.53937 -0.14262 -0.08662
						CHANNELS 3 Zrotation Yrotation Xrotation
						JOINT LeftArm
						{
							OFFSET 4.04833 -0.00133 0.12681
							CHANNELS 3 Zrotation Yrotation Xrotation
							JOINT LeftForeArm
							{
								OFFSET 10.33880 -0.01036 -0.55515
								CHANNELS 3 Zrotation Yrotation Xrotation
								JOINT LeftHand
								{
									OFFSET 8.69677 0.07543 0.40060
									CHANNELS 3 Zrotation Yrotation Xrotation
									End Site
									{
										OFFSET 5.28377 -0.21905 0.59205
									}
								}
							}
						}
					}
				}
				JOINT RightShoulderDummy
				{
					OFFSET 0 0 0
					CHANNELS 3 Zrotation Yrotation Xrotation
					JOINT RightShoulder
					{
						OFFSET -3.53937 -0.14262 -0.08660
						CHANNELS 3 Zrotation Yrotation Xrotation
						JOINT RightArm
						{
							OFFSET -4.04833 -0.00133 0.12683
							CHANNELS 3 Zrotation Yrotation Xrotation
							JOINT RightForeArm
							{
								OFFSET -10.37987 -0.01039 -0.55511
								CHANNELS 3 Zrotation Yrotation Xrotation
								JOINT RightHand
								{
									OFFSET -8.67398 0.07538 0.40058
									CHANNELS 3 Zrotation Yrotation Xrotation
									End Site
									{
										OFFSET -5.24810 -0.21916 0.59204
									}
								}
							}
						}
					}
				}
			}
		}
	}
	JOINT LeftUpLegDummy
	{
		OFFSET 0 0 0
		CHANNELS 3 Zrotation Yrotation Xrotation
		JOINT LeftUpLeg
		{
			OFFSET 3.52197 -3.41223 0.04002
			CHANNELS 3 Zrotation Yrotation Xrotation
			JOINT LeftLeg
			{
				OFFSET -0.00012 -17.42399 1.60337
				CHANNELS 3 Zrotation Yrotation Xrotation
				JOINT LeftFoot
				{
					OFFSET -0.09972 -16.50070 -1.63802
					CHANNELS 3 Zrotation Yrotation Xrotation
					JOINT LeftToes
					{
						OFFSET -0.01575 -1.73823 3.34611
						CHANNELS 3 Zrotation Yrotation Xrotation
						End Site
						{
							OFFSET 0.03150 -0.01868 3.85031
						}
					}
				}
			}
		}
	}
}
MOTION
Frames: 8
Frame Time: 0.033333
-77.0971 40.5510 -4.2952 -2.3765 75.3467 -4.7397 0.0000 0.0000 0.0000 2.1949 -5.6186 0.1302 -2.7283 -13.6255 12.3030 1.1449 -0.0473 -9.5530 -0.0000 -0.0000 0.0000 0.0000 0.0000 0.0000 -0.9993 -0.4984 -9.6927 5.2700 -1.9537 21.8210 0.0000 0.0000 0.0000 -4.5259 13.4486 -8.7059 0.0000 0.0000 0.0000 -17.3449 -2.9974 1.5600 -60.7890 -16.0319 -17.6474 -11.7310 -0.0055 37.7967 13.5693 -1.6305 -0.8065 0.0000 0.0000 0.0000 20.8400 1.0942 1.2533 55.5715 15.9966 -0.9045 11.5716 9.9702 25.9075 -6.4124 1.6432 -0.3631 0.0000 0.0000 0.0000 -1.3598 10.4199 -11.0027 4.0888 9.8939 15.6173 1.2643 -0.0908 -2.0247 -0.0000 0.0000 -0.0000
-77.0999 40.5486 -4.2971 -2.5966 75.3272 -4.9838 0.0000 0.0000 0.0000 2.2402 -5.6162 0.1518 -2.7113 -13.6023 12.3261 1.1383 -0.0469 -9.5321 -0.0000 -0.0000 0.0000 0.0000 0.0000 0.0000 -1.0646 -0.4530 -9.2210 5.5017 -1.9670 21.2494 0.0000 0.0000 0.0000 -4.5413 13.2874 -8.5806 0.0000 0.0000 0.0000 -17.4315 -2.9842 1.5620 -60.8062 -15.8999 -17.5872 -11.8082 0.1498 38.1630 13.9464 -2.2288 -0.8974 0.0000 0.0000 0.0000 20.8657 0.9332 1.2106 55.4592 15.8755 -0.5792 11.5683 10.0697 25.7322 -6.3588 1.5874 -0.3637 0.0000 0.0000 0.0000 -1.2872 10.4310 -10.9664 4.0452 9.7800 15.5977 1.4067 -0.0999 -2.1064 -0.0000 0.0000 -0.0000
-77.1053 40.5454 -4.3003 -2.9318 75.3096 -5.3560 0.0000 0.0000 0.0000 2.3164 -5.6011 0.1971 -2.6922 -13.5995 12.3265 1.1168 -0.0456 -9.4953 -0.0000 -0.0000 0.0000 0.0000 0.0000 0.0000 -1.1496 -0.3979 -8.5572 5.7994 -1.9860 20.4509 0.0000 0.0000 0.0000 -4.5343 13.0940 -8.4634 0.0000 0.0000 0.0000 -17.5523 -3.0223 1.5784 -60.8257 -15.6736 -17.5207 -11.9053 0.3203 38.6986 14.4303 -3.0508 -1.0255 0.0000 0.0000 0.0000 20.9307 0.7558 1.1648 55.2678 15.7051 -0.1914 11.5681 10.1911 25.4928 -6.3145 1.5616 -0.3646 0.0000 0.0000 0.0000 -1.1816 10.4348 -10.9359 4.0038 9.6398 15.6191 1.5620 -0.1099 -2.2344 -0.0000 0.0000 -0.0000
-77.1095 40.5436 -4.3033 -3.1298 75.2976 -5.5705 0.0000 0.0000 0.0000 2.3720 -5.5698 0.2354 -2.6878 -13.6375 12.2741 1.0890 -0.0439 -9.4714 -0.0000 -0.0000 0.0000 0.0000 0.0000 0.0000 -1.1778 -0.3872 -8.2613 5.9003 -2.0015 20.1056 0.0000 0.0000 0.0000 -4.4757 13.0632 -8.4907 0.0000 0.0000 0.0000 -17.5826 -3.0748 1.5930 -60.8759 -15.5358 -17.5086 -11.9229 0.3650 39.0644 14.5265 -3.4376 -1.0784 0.0000 0.0000 0.0000 20.9942 0.7068 1.1540 55.1426 15.6372 -0.0702 11.5701 10.2327 25.4460 -6.2934 1.6283 -0.3651 0.0000 0.0000 0.0000 -1.1228 10.4377 -10.9463 4.0042 9.5963 15.6778 1.5783 -0.1110 -2.3064 -0.0000 0.0000 -0.0000
-77.1104 40.5422 -4.3060 -3.2089 75.2822 -5.6444 0.0000 0.0000 0.0000 2.3992 -5.5467 0.2566 -2.6846 -13.6822 12.2070 1.0733 -0.0429 -9.4707 -0.0000 -0.0000 0.0000 0.0000 0.0000 0.0000 -1.1578 -0.4118 -8.3442 5.8541 -2.0216 20.2350 0.0000 0.0000 0.0000 -4.3659 13.1665 -8.5926 0.0000 0.0000 0.0000 -17.5333 -3.0531 1.5847 -60.9645 -15.5616 -17.5297 -11.8744 0.3706 39.2427 14.3112 -3.4334 -1.0614 0.0000 0.0000 0.0000 21.0251 0.7142 1.1570 55.1132 15.6982 -0.1674 11.5777 10.1898 25.6543 -6.2296 1.7476 -0.3633 0.0000 0.0000 0.0000 -1.1034 10.4392 -10.9703 4.0229 9.6185 15.7207 1.5366 -0.1083 -2.3220 -0.0000 0.0000 -0.0000
-77.1084 40.5405 -4.3087 -3.2943 75.2674 -5.7374 0.0000 0.0000 0.0000 2.4156 -5.5413 0.2843 -2.6737 -13.6991 12.1754 1.0720 -0.0427 -9.4857 -0.0000 -0.0000 0.0000 0.0000 0.0000 0.0000 -1.1257 -0.4334 -8.4698 5.8077 -2.0390 20.4382 0.0000 0.0000 0.0000 -4.2350 13.2320 -8.6234 0.0000 0.0000 0.0000 -17.4930 -2.9944 1.5681 -61.0379 -15.6449 -17.5460 -11.8336 0.4249 39.3630 14.1598 -3.4303 -1.0494 0.0000 0.0000 0.0000 21.0557 0.6897 1.1501 55.1023 15.7890 -0.2057 11.5932 10.1502 25.7273 -6.1496 1.7664 -0.3608 0.0000 0.0000 0.0000 -1.0811 10.4382 -10.9615 4.0323 9.6357 15.7337 1.5617 -0.1099 -2.3357 -0.0000 0.0000 -0.0000
-77.1060 40.5393 -4.3120 -3.3742 75.2628 -5.8503 0.0000 0.0000 0.0000 2.4318 -5.5272 0.3170 -2.6883 -13.7026 12.1981 1.0859 -0.0436 -9.5091 -0.0000 -0.0000 0.0000 0.0000 0.0000 0.0000 -1.0974 -0.4382 -8.4722 5.7783 -2.0366 20.4860 0.0000 0.0000 0.0000 -4.1386 13.1650 -8.5495 0.0000 0.0000 0.0000 -17.4880 -3.0259 1.5754 -61.0486 -15.6333 -17.5469 -11.8362 0.4433 39.4339 14.1912 -3.5301 -1.0633 0.0000 0.0000 0.0000 21.1211 0.6695 1.1488 55.0770 15.7883 0.0612 11.5976 10.2409 25.0639 -6.2197 1.5170 -0.3565 0.0000 0.0000 0.0000 -1.0600 10.4339 -10.9289 4.0393 9.6416 15.7523 1.6344 -0.1146 -2.3556 -0.0000 0.0000 -0.0000
-77.1041 40.5377 -4.3151 -3.3764 75.2722 -5.8806 0.0000 0.0000 0.0000 2.4518 -5.4791 0.3130 -2.7658 -13.7343 12.2742 1.1320 -0.0465 -9.5426 -0.0000 -0.0000 0.0000 0.0000 0.0000 0.0000 -1.0966 -0.4368 -8.4618 5.7519 -2.0250 20.4805 0.0000 0.0000 0.0000 -4.1186 13.0449 -8.4563 0.0000 0.0000 0.0000 -17.4884 -3.1453 1.6042 -61.0158 -15.5318 -17.5224 -11.8666 0.3391 39.3163 14.2430 -3.4930 -1.0630 0.0000 0.0000 0.0000 21.1715 0.6999 1.1591 55.1002 15.6764 0.5878 11.5683 10.4735 23.7547 -6.5097 1.0847 -0.3529 0.0000 0.0000 0.0000 -1.0692 10.4463 -10.9248 4.0517 9.6384 15.8027 1.6777 -0.1174 -2.3594 -0.0000 0.0000 -0.0000
